<?xml version="1.0" encoding="utf-8"?>
<!-- Generator: Adobe Illustrator 24.1.1, SVG Export Plug-In . SVG Version: 6.00 Build 0)  -->
<svg version="1.1" id="Capa_1" xmlns="http://www.w3.org/2000/svg" xmlns:xlink="http://www.w3.org/1999/xlink" x="0px" y="0px"
	 viewBox="0 0 9.51 8.36" style="enable-background:new 0 0 9.51 8.36;" xml:space="preserve">
<style type="text/css">
	.st0{fill:#3AAA35;}
</style>
<g>
	<path class="st0" d="M3.21,5.46h4.64c0.12,0,0.22-0.08,0.25-0.19l1.03-3.6C9.15,1.6,9.14,1.52,9.09,1.45
		c-0.05-0.06-0.12-0.1-0.21-0.1H2.62L2.43,0.52c-0.03-0.12-0.13-0.2-0.25-0.2H0.62c-0.14,0-0.26,0.12-0.26,0.26
		c0,0.14,0.12,0.26,0.26,0.26h1.35L2.9,5.01C2.63,5.13,2.44,5.4,2.44,5.72c0,0.43,0.35,0.77,0.77,0.77h0.51h3.62h0.51
		c0.14,0,0.26-0.11,0.26-0.26c0-0.14-0.11-0.26-0.26-0.26H3.21c-0.14,0-0.26-0.12-0.26-0.26C2.95,5.58,3.07,5.46,3.21,5.46z"/>
	<path class="st0" d="M2.95,7.26c0,0.43,0.35,0.77,0.77,0.77c0.43,0,0.77-0.35,0.77-0.77c0-0.43-0.35-0.77-0.77-0.77
		C3.3,6.49,2.95,6.84,2.95,7.26z"/>
	<circle class="st0" cx="7.34" cy="7.26" r="0.77"/>
</g>
</svg>
