<?xml version="1.0" encoding="utf-8"?>
<!-- Generator: Adobe Illustrator 24.1.1, SVG Export Plug-In . SVG Version: 6.00 Build 0)  -->
<svg version="1.1" id="Capa_1" xmlns="http://www.w3.org/2000/svg" xmlns:xlink="http://www.w3.org/1999/xlink" x="0px" y="0px"
	 viewBox="0 0 9.12 9.12" style="enable-background:new 0 0 9.12 9.12;" xml:space="preserve">
<style type="text/css">
	.st0{fill:#706F6F;}
</style>
<path class="st0" d="M4.52,8.58c-0.13,0-0.25-0.05-0.35-0.13C3.81,8.13,3.46,7.83,3.14,7.57l0,0C2.23,6.79,1.44,6.12,0.9,5.46
	C0.29,4.72,0,4.02,0,3.25c0-0.74,0.25-1.43,0.72-1.93c0.47-0.51,1.11-0.79,1.81-0.79c0.52,0,1,0.17,1.42,0.49
	c0.21,0.16,0.4,0.37,0.57,0.6c0.17-0.23,0.36-0.44,0.57-0.6C5.52,0.7,6,0.54,6.52,0.54c0.7,0,1.34,0.28,1.81,0.79
	c0.46,0.5,0.72,1.19,0.72,1.93c0,0.77-0.29,1.47-0.9,2.2C7.6,6.12,6.81,6.79,5.9,7.57C5.59,7.83,5.24,8.13,4.87,8.45
	C4.78,8.54,4.65,8.58,4.52,8.58z M2.53,1.07c-0.55,0-1.05,0.22-1.42,0.62c-0.37,0.4-0.58,0.96-0.58,1.57c0,0.64,0.24,1.22,0.78,1.87
	C1.82,5.75,2.59,6.4,3.49,7.16l0,0C3.8,7.43,4.15,7.73,4.52,8.05c0.37-0.32,0.72-0.62,1.04-0.89C6.45,6.4,7.22,5.75,7.74,5.12
	C8.28,4.47,8.52,3.9,8.52,3.25c0-0.61-0.21-1.17-0.58-1.57c-0.37-0.4-0.87-0.62-1.42-0.62c-0.4,0-0.77,0.13-1.1,0.38
	C5.13,1.67,4.93,1.95,4.81,2.15c-0.06,0.1-0.17,0.16-0.29,0.16S4.3,2.26,4.24,2.15c-0.12-0.2-0.32-0.48-0.61-0.71
	C3.3,1.19,2.93,1.07,2.53,1.07z"/>
</svg>
