<?xml version="1.0" encoding="utf-8"?>
<!-- Generator: Adobe Illustrator 24.1.1, SVG Export Plug-In . SVG Version: 6.00 Build 0)  -->
<svg version="1.1" id="Capa_1" xmlns="http://www.w3.org/2000/svg" xmlns:xlink="http://www.w3.org/1999/xlink" x="0px" y="0px"
	 viewBox="0 0 7.7 9.3" style="enable-background:new 0 0 7.7 9.3;" xml:space="preserve">
<style type="text/css">
	.st0{fill:#FF0000;}
</style>
<g>
	<path class="st0" d="M6.4,6C6.1,5.7,5.8,5.2,5.8,4.7V3.9c0-1-0.7-1.8-1.6-1.9V1.6c0-0.2-0.2-0.3-0.3-0.3S3.5,1.5,3.5,1.6v0.3
		c-0.9,0.2-1.6,1-1.6,2v0.8c0,0.5-0.2,1.1-0.7,1.4c0,0-0.1,0.2-0.1,0.3c0,0.2,0.2,0.5,0.5,0.5h4.6c0.2,0,0.5-0.2,0.5-0.5
		C6.6,6.3,6.5,6.1,6.4,6z"/>
	<path class="st0" d="M3.9,8c0.5,0,0.9-0.4,1-0.9H2.8C3,7.6,3.3,8,3.9,8z"/>
</g>
</svg>
