<?xml version="1.0" encoding="utf-8"?>
<!-- Generator: Adobe Illustrator 24.1.1, SVG Export Plug-In . SVG Version: 6.00 Build 0)  -->
<svg version="1.1" id="Capa_1" xmlns="http://www.w3.org/2000/svg" xmlns:xlink="http://www.w3.org/1999/xlink" x="0px" y="0px"
	 viewBox="0 0 7.7 9.3" style="enable-background:new 0 0 7.7 9.3;" xml:space="preserve">
<style type="text/css">
	.st0{fill:none;stroke:#DADADA;stroke-width:0.2059;stroke-miterlimit:10;}
</style>
<g>
	<path class="st0" d="M2.6,5.7h3.8c0.1,0,0.2-0.1,0.2-0.2l0.8-3c0-0.1,0-0.1,0-0.2c0,0-0.1-0.1-0.2-0.1H2.1L1.9,1.6
		c0-0.1-0.1-0.2-0.2-0.2H0.4c-0.1,0-0.2,0.1-0.2,0.2c0,0.1,0.1,0.2,0.2,0.2h1.1l0.8,3.4C2.1,5.4,1.9,5.7,1.9,5.9
		c0,0.4,0.3,0.6,0.6,0.6H3h3h0.4c0.1,0,0.2-0.1,0.2-0.2c0-0.1-0.1-0.2-0.2-0.2H2.6C2.5,6.1,2.4,6,2.4,5.9C2.4,5.8,2.5,5.7,2.6,5.7z"
		/>
	<path class="st0" d="M2.4,7.2c0,0.4,0.3,0.6,0.6,0.6c0.4,0,0.6-0.3,0.6-0.6c0-0.4-0.3-0.6-0.6-0.6C2.7,6.6,2.4,6.8,2.4,7.2z"/>
	<circle class="st0" cx="6" cy="7.2" r="0.6"/>
</g>
</svg>
