<?xml version="1.0" encoding="utf-8"?>
<!-- Generator: Adobe Illustrator 24.1.1, SVG Export Plug-In . SVG Version: 6.00 Build 0)  -->
<svg version="1.1" id="Capa_1" xmlns="http://www.w3.org/2000/svg" xmlns:xlink="http://www.w3.org/1999/xlink" x="0px" y="0px"
	 viewBox="0 0 10.28 9.12" style="enable-background:new 0 0 10.28 9.12;" xml:space="preserve">
<style type="text/css">
	.st0{fill:#706F6F;}
</style>
<g>
	<g>
		<path class="st0" d="M8.05,0.5H2.23C1.11,0.5,0.2,1.41,0.2,2.52v3.13c0,0.89,0.58,1.67,1.43,1.91l0.98,0.98
			c0.05,0.05,0.13,0.08,0.2,0.08c0.08,0,0.15-0.03,0.2-0.08l0.9-0.9h4.13c1.12,0,2.02-0.91,2.02-2.02v-3.1
			C10.07,1.41,9.16,0.5,8.05,0.5z M9.49,5.62c0,0.8-0.65,1.45-1.45,1.45H3.8c-0.08,0-0.15,0.03-0.2,0.08L2.82,7.92L1.99,7.1
			C1.95,7.06,1.91,7.03,1.86,7.02C1.22,6.86,0.78,6.3,0.78,5.65V2.52c0-0.8,0.65-1.45,1.45-1.45h5.82c0.8,0,1.45,0.65,1.45,1.45
			V5.62z"/>
		<path class="st0" d="M6.97,3.27H3.3c-0.16,0-0.29,0.13-0.29,0.29c0,0.16,0.13,0.29,0.29,0.29h3.67c0.16,0,0.29-0.13,0.29-0.29
			C7.26,3.4,7.13,3.27,6.97,3.27z"/>
		<path class="st0" d="M6.97,4.29H3.3c-0.16,0-0.29,0.13-0.29,0.29S3.14,4.87,3.3,4.87h3.67c0.16,0,0.29-0.13,0.29-0.29
			S7.13,4.29,6.97,4.29z"/>
	</g>
</g>
</svg>
