<?xml version="1.0" encoding="utf-8"?>
<!-- Generator: Adobe Illustrator 24.1.1, SVG Export Plug-In . SVG Version: 6.00 Build 0)  -->
<svg version="1.1" id="Capa_1" xmlns="http://www.w3.org/2000/svg" xmlns:xlink="http://www.w3.org/1999/xlink" x="0px" y="0px"
	 viewBox="0 0 9.12 9.12" style="enable-background:new 0 0 9.12 9.12;" xml:space="preserve">
<style type="text/css">
	.st0{fill:#E30613;}
</style>
<path class="st0" d="M8.38,1.31C7.91,0.8,7.26,0.52,6.56,0.52c-0.52,0-1,0.17-1.43,0.49c-0.21,0.16-0.41,0.37-0.58,0.6
	C4.39,1.38,4.2,1.18,3.98,1.02c-0.42-0.33-0.9-0.49-1.43-0.49c-0.7,0-1.34,0.28-1.81,0.79c-0.46,0.5-0.72,1.19-0.72,1.94
	c0,0.77,0.29,1.47,0.9,2.21C1.47,6.12,2.26,6.8,3.18,7.57c0.31,0.27,0.67,0.57,1.03,0.89c0.1,0.08,0.22,0.13,0.35,0.13
	c0.13,0,0.25-0.05,0.35-0.13c0.37-0.32,0.72-0.62,1.03-0.89C6.86,6.8,7.65,6.12,8.2,5.46c0.61-0.74,0.9-1.44,0.9-2.21
	C9.1,2.51,8.84,1.82,8.38,1.31z"/>
</svg>
