<?xml version="1.0" encoding="utf-8"?>
<!-- Generator: Adobe Illustrator 24.1.1, SVG Export Plug-In . SVG Version: 6.00 Build 0)  -->
<svg version="1.1" id="Capa_1" xmlns="http://www.w3.org/2000/svg" xmlns:xlink="http://www.w3.org/1999/xlink" x="0px" y="0px"
	 viewBox="0 0 82.66 85.41" style="enable-background:new 0 0 82.66 85.41;" xml:space="preserve">
<style type="text/css">
	.st0{fill:#F9C61B;}
	.st1{fill:#F6A31E;}
	.st2{fill:#FDD321;}
	.st3{fill:#FFE141;}
	.st4{fill:#891812;}
	.st5{fill:#911913;}
	.st6{fill:#7A1713;}
	.st7{fill:#B2191D;}
	.st8{fill:#C71618;}
	.st9{fill:#E30613;}
	.st10{fill:#020100;}
	.st11{fill:#FFFFFF;}
</style>
<g>
	<g>
		<circle class="st0" cx="40.02" cy="46.69" r="34.75"/>
		<path class="st1" d="M64.44,21.96l-6.73,6.61c2.74,4.97,4.3,10.68,4.3,16.75c0,18.27-14.1,33.25-32.01,34.65
			c3.17,0.95,6.54,1.47,10.02,1.47c19.19,0,34.75-15.56,34.75-34.75C74.77,37.01,70.82,28.26,64.44,21.96z"/>
		<circle class="st1" cx="9.48" cy="67.67" r="0.8"/>
		<g>
			<path class="st1" d="M6.51,55.62c1.48,6.17,4.63,12.02,9.45,16.83l50.42-50.42c-4.82-4.81-10.67-7.96-16.84-9.44L6.51,55.62z"/>
			<path class="st2" d="M27.2,14.45v-0.01c-4.08,1.74-7.91,4.27-11.24,7.6C6.85,31.15,3.7,43.96,6.51,55.63l30.48-30.48
				C44.97,15.69,34.37,11.54,27.2,14.45z"/>
			<g>
				<g>
					<path class="st1" d="M62.44,1.6c2.09-0.28,0.93-2.76-0.94-0.94c-0.07,0.06-0.12,0.1-0.16,0.12l-3.15,3.15
						C58.85,3.43,60.23,1.9,62.44,1.6z"/>
					<path class="st1" d="M56.68,5.45L37.71,24.42l4.23,4.23l13.88-13.88C55.47,14.53,51.29,11.52,56.68,5.45z"/>
				</g>
			</g>
			<circle class="st0" cx="46.78" cy="9.12" r="1.16"/>
			<path class="st3" d="M27.2,14.45c7.52-3.05,18.82,1.66,8.48,12.12C21.53,40.87,6.46,23.79,27.2,14.45z"/>
		</g>
		<g>
			<g>
				<path class="st1" d="M2.68,83.81c-2.09,0.28-0.93,2.76,0.94,0.94c0.07-0.06,0.12-0.1,0.16-0.12l3.15-3.15
					C6.28,81.98,4.9,83.52,2.68,83.81z"/>
				<path class="st1" d="M8.45,79.96L27.41,61l-4.23-4.23l-12.62,8.79C12.15,67.82,13.84,73.9,8.45,79.96z"/>
			</g>
		</g>
		<g>
			<path class="st4" d="M46.6,62.55c8.64,1.78,17.98-0.68,24.68-7.39c6.7-6.7,9.17-16.04,7.39-24.68L46.6,62.55z"/>
			<path class="st5" d="M73.93,19.88L73.93,19.88c-0.79-1.09-1.67-2.12-2.65-3.1L37.62,50.44c-2.29,2.29-2.29,6,0,8.29
				c0.35,0.35,0.74,0.65,1.16,0.9c2.47,1.39,5.11,2.37,7.82,2.93l25.98-25.98C77.12,32.03,77.57,24.93,73.93,19.88z"/>
			<circle class="st4" cx="81.81" cy="31.55" r="0.85"/>
			<circle class="st6" cx="80.9" cy="35.62" r="0.66"/>
			<path class="st6" d="M38.79,59.63c2.47,1.39,5.1,2.36,7.8,2.92l25.98-25.98c3.7-3.7,4.69-9.09,2.97-13.69L38.79,59.63z"/>
			<path class="st7" d="M75.54,22.88L55.18,43.24c-1.48,1.48-1.48,3.88,0,5.37l0,0c1.48,1.48,3.88,1.48,5.37,0l12.03-12.03
				C76.28,32.87,77.26,27.48,75.54,22.88z"/>
			<path class="st8" d="M59.1,39.32l16.44-16.43c-0.39-1.05-0.93-2.07-1.61-3.01l0.01-0.01c-0.8-1.08-1.68-2.11-2.66-3.09
				L53.92,34.14c-1.43,1.43-1.43,3.75,0,5.18l0,0C55.35,40.75,57.67,40.75,59.1,39.32z"/>
			<path class="st9" d="M73.93,19.88L73.93,19.88c-0.79-1.09-1.67-2.12-2.65-3.1l-9.43,9.43c-2.91,2.91-2.91,7.63,0,10.54l0,0
				c2.91,2.91,7.63,2.91,10.54,0l0.19-0.19C77.12,32.02,77.57,24.93,73.93,19.88z"/>
			<g>
				<path class="st7" d="M26.96,81.12c-1.59,0.21-0.71,2.1,0.72,0.72c0.05-0.05,0.09-0.08,0.12-0.09l2.4-2.4
					C29.7,79.72,28.65,80.89,26.96,81.12z"/>
				<path class="st7" d="M31.35,78.19l14.44-14.44l-3.22-3.22L32,71.1C32.27,71.28,35.45,73.57,31.35,78.19z"/>
			</g>
		</g>
		<g>
			<path class="st10" d="M41.42,56.9c9.48-5.9,13.62-18.39,12.2-32.86c-3.88-2.3-8.41-3.62-13.24-3.62c-14.36,0-26,11.64-26,26
				s11.64,26,26,26c13.53,0,24.64-10.33,25.88-23.53C58.4,55.38,49.61,58.48,41.42,56.9z"/>
			<g>
				<path class="st11" d="M32.72,44.17c-1.55-1.55-2.4-3.61-2.4-5.8s0.85-4.25,2.4-5.8c1.41-1.41,3.27-2.18,5.26-2.18
					s3.86,0.77,5.26,2.18c1.28,1.28,1.98,2.97,1.98,4.77s-0.7,3.5-1.98,4.77c-2.39,2.39-6.28,2.39-8.67,0
					c-2.17-2.17-2.17-5.71,0-7.88c1.98-1.98,5.2-1.98,7.17,0c1.8,1.8,1.8,4.73,0,6.53c-1.64,1.64-4.32,1.64-5.96,0
					c-1.5-1.5-1.5-3.94,0-5.44c1.37-1.37,3.6-1.37,4.98,0c1.26,1.26,1.26,3.3,0,4.56c-1.15,1.15-3.03,1.15-4.18,0
					c-0.68-0.68-0.92-1.64-0.73-2.52c-0.23,0.91,0.01,1.91,0.72,2.62c1.21,1.21,3.18,1.21,4.39,0c1.37-1.37,1.37-3.6,0-4.97
					c-1.55-1.55-4.06-1.55-5.61,0c-1.74,1.74-1.74,4.57,0,6.32c1.96,1.96,5.15,1.96,7.1,0c1.07-1.07,1.65-2.48,1.65-3.99
					c0-1.51-0.59-2.92-1.65-3.99c-1.2-1.2-2.79-1.85-4.48-1.85s-3.28,0.66-4.48,1.85c-1.34,1.34-2.08,3.12-2.08,5.02
					s0.74,3.68,2.08,5.02L32.72,44.17z M38.44,37.72c-0.02,0.02-0.02,0.06,0.01,0.08c-0.01,0.02-0.01,0.06,0.01,0.08
					c0.04,0.04,0.11,0.05,0.16,0.01L38.44,37.72z"/>
			</g>
		</g>
	</g>
</g>
</svg>
