<?xml version="1.0" encoding="utf-8"?>
<!-- Generator: Adobe Illustrator 24.1.1, SVG Export Plug-In . SVG Version: 6.00 Build 0)  -->
<svg version="1.1" id="Capa_1" xmlns="http://www.w3.org/2000/svg" xmlns:xlink="http://www.w3.org/1999/xlink" x="0px" y="0px"
	 viewBox="0 0 376.3 376.3" style="enable-background:new 0 0 376.3 376.3;" xml:space="preserve">
<style type="text/css">
	.st0{fill:#F9C61B;}
	.st1{fill:#F6A31E;}
	.st2{fill:#FDD321;}
	.st3{fill:#FFE141;}
	.st4{fill:#891812;}
	.st5{fill:#911913;}
	.st6{fill:#7A1713;}
	.st7{fill:#B2191D;}
	.st8{fill:#C71618;}
	.st9{fill:#E30613;}
	.st10{fill:#020100;}
	.st11{fill:#FFFFFF;}
</style>
<g>
	<circle class="st0" cx="179.85" cy="203.91" r="137.62"/>
	<path class="st1" d="M276.55,106.01l-26.66,26.17c10.85,19.68,17.03,42.29,17.03,66.35c0,72.35-55.83,131.65-126.75,137.19
		c12.56,3.78,25.88,5.82,39.67,5.82c76,0,137.62-61.61,137.62-137.62C317.46,165.61,301.81,130.96,276.55,106.01z"/>
	<circle class="st1" cx="58.91" cy="287.01" r="3.17"/>
	<g>
		<path class="st1" d="M47.14,239.3c5.88,24.42,18.35,47.58,37.41,66.64l199.65-199.65c-19.06-19.06-42.22-31.53-66.64-37.41
			L47.14,239.3z"/>
		<path class="st2" d="M129.08,76.25l-0.01-0.05c-16.18,6.88-31.33,16.9-44.53,30.09c-36.07,36.07-48.54,86.8-37.41,133.01
			L167.83,118.6C199.46,81.17,157.47,64.72,129.08,76.25z"/>
		<g>
			<g>
				<path class="st1" d="M268.65,25.38c8.28-1.1,3.68-10.93-3.72-3.72c-0.26,0.25-0.47,0.4-0.62,0.47l-12.49,12.49
					C254.42,32.63,259.89,26.55,268.65,25.38z"/>
				<path class="st1" d="M245.81,40.62l-75.09,75.09l16.75,16.75l54.96-54.96C241.04,76.57,224.48,64.63,245.81,40.62z"/>
			</g>
		</g>
		<circle class="st0" cx="206.62" cy="55.16" r="4.61"/>
		<path class="st3" d="M129.08,76.25c29.77-12.1,74.51,6.59,33.57,48C106.65,180.88,46.97,113.24,129.08,76.25z"/>
	</g>
	<g>
		<g>
			<path class="st1" d="M32,350.92c-8.28,1.1-3.68,10.93,3.72,3.72c0.26-0.25,0.47-0.4,0.62-0.47l12.49-12.49
				C46.23,343.67,40.76,349.75,32,350.92z"/>
			<path class="st1" d="M54.84,335.68l75.09-75.09l-16.75-16.75l-49.97,34.8C69.48,287.58,76.18,311.67,54.84,335.68z"/>
		</g>
	</g>
	<g>
		<path class="st4" d="M205.89,266.72c34.21,7.04,71.19-2.71,97.74-29.26c26.55-26.55,36.29-63.52,29.26-97.74L205.89,266.72z"/>
		<path class="st5" d="M314.13,97.75l0.03-0.03c-3.15-4.27-6.66-8.36-10.53-12.22L170.36,218.77c-9.06,9.06-9.06,23.76,0,32.82
			c1.4,1.4,2.94,2.58,4.57,3.55c9.78,5.51,20.23,9.38,30.96,11.59l102.86-102.86C326.76,145.85,328.56,117.76,314.13,97.75z"/>
		<circle class="st4" cx="345.34" cy="143.96" r="3.38"/>
		<circle class="st6" cx="341.74" cy="160.09" r="2.63"/>
		<path class="st6" d="M174.99,255.17c9.76,5.49,20.19,9.35,30.9,11.56l102.86-102.86c14.66-14.66,18.57-35.98,11.75-54.21
			L174.99,255.17z"/>
		<path class="st7" d="M320.49,109.63l-80.62,80.62c-5.87,5.87-5.87,15.38,0,21.25l0,0c5.87,5.87,15.38,5.87,21.25,0l47.63-47.63
			C323.42,149.2,327.33,127.86,320.49,109.63z"/>
		<path class="st8" d="M255.41,174.75l65.09-65.09c-1.56-4.17-3.69-8.18-6.37-11.91l0.03-0.03c-3.15-4.27-6.66-8.36-10.53-12.22
			l-68.74,68.74c-5.67,5.67-5.67,14.85,0,20.52l0,0C240.56,180.41,249.74,180.41,255.41,174.75z"/>
		<path class="st9" d="M314.13,97.75l0.03-0.03c-3.15-4.27-6.66-8.36-10.53-12.22l-37.35,37.35c-11.53,11.53-11.53,30.22,0,41.75
			l0,0c11.53,11.53,30.22,11.53,41.75,0l0.75-0.75C326.77,145.82,328.55,117.75,314.13,97.75z"/>
		<g>
			<path class="st7" d="M128.15,340.25c-6.31,0.84-2.8,8.32,2.83,2.83c0.2-0.19,0.35-0.3,0.48-0.36l9.51-9.51
				C138.98,334.73,134.82,339.36,128.15,340.25z"/>
			<path class="st7" d="M145.53,328.65l57.16-57.16l-12.75-12.75l-41.84,41.84C149.16,301.28,161.77,310.37,145.53,328.65z"/>
		</g>
	</g>
	<g>
		<path class="st10" d="M185.38,244.34c37.55-23.36,53.93-72.84,48.29-130.11c-15.36-9.11-33.29-14.35-52.45-14.35
			c-56.85,0-102.94,46.09-102.94,102.94c0,56.85,46.09,102.94,102.94,102.94c53.56,0,97.56-40.9,102.48-93.17
			C252.62,238.34,217.85,250.61,185.38,244.34z"/>
		<g>
			<path class="st11" d="M150.94,193.93c-6.14-6.14-9.52-14.3-9.52-22.98c0-8.68,3.38-16.84,9.52-22.97
				c5.56-5.57,12.96-8.63,20.83-8.63c7.87,0,15.27,3.06,20.83,8.63c5.05,5.05,7.83,11.76,7.83,18.9s-2.78,13.86-7.83,18.91
				c-9.47,9.47-24.87,9.47-34.34,0c-8.61-8.61-8.61-22.61,0-31.22c7.83-7.83,20.57-7.83,28.4,0c7.13,7.13,7.13,18.74,0,25.88
				c-6.51,6.51-17.09,6.51-23.6,0c-5.94-5.94-5.94-15.61,0-21.55c5.43-5.43,14.27-5.43,19.7,0c4.97,4.98,4.97,13.07,0,18.04
				c-4.56,4.56-11.99,4.56-16.55,0c-2.7-2.7-3.66-6.49-2.88-9.96c-0.91,3.59,0.03,7.56,2.83,10.36c4.79,4.79,12.59,4.79,17.39,0
				c5.42-5.42,5.42-14.24,0-19.67c-6.12-6.12-16.08-6.12-22.2,0c-6.89,6.9-6.89,18.11,0,25.01c7.76,7.76,20.37,7.75,28.13,0
				c4.22-4.22,6.54-9.83,6.54-15.8c0-5.97-2.32-11.58-6.54-15.8c-4.74-4.74-11.03-7.34-17.73-7.34c-6.7,0-12.99,2.61-17.73,7.34
				c-5.31,5.31-8.23,12.36-8.23,19.87c0,7.51,2.92,14.56,8.23,19.87L150.94,193.93z M173.6,168.41c-0.07,0.09-0.06,0.23,0.02,0.31
				c-0.06,0.09-0.06,0.23,0.03,0.31c0.17,0.17,0.44,0.19,0.63,0.06L173.6,168.41z"/>
		</g>
	</g>
</g>
</svg>
